<?xml version="1.0" standalone="no"?><!DOCTYPE svg PUBLIC "-//W3C//DTD SVG 1.1//EN" "http://www.w3.org/Graphics/SVG/1.1/DTD/svg11.dtd"><svg t="1551405946954" class="icon" style="" viewBox="0 0 1024 1024" version="1.1" xmlns="http://www.w3.org/2000/svg" p-id="8853" xmlns:xlink="http://www.w3.org/1999/xlink" width="16" height="16"><defs><style type="text/css"></style></defs><path d="M92.23 888.663h830.613v69.22H92.23v-69.22z m0-830.611h357.717v54.425l-77.262 5.442-17.642 15.782v390.222c0 74.38 15.817 127.535 47.452 159.465 31.635 31.925 83.545 47.895 155.74 47.895 66.515 0 114.675-16.965 144.485-50.89 29.81-33.93 44.715-89.525 44.715-166.81V138.055l-18.86-19.047-79.695-6.53V58.052h282.889v54.425l-76.05 6.53-17.035 19.047v386.959c0 103.405-25.955 178.33-77.87 224.769-51.91 46.445-135.665 69.665-251.247 69.665-60.435 0-113.462-7.895-159.087-23.675-45.627-15.785-81.42-38.365-107.377-67.76-19.872-23.22-33.967-49.8-42.28-79.73-8.315-29.935-12.472-72.84-12.472-128.715V133.702l-17.642-15.782-78.477-5.442V58.052z" fill="" p-id="8854"></path></svg>